<svg width="27" height="24" viewBox="0 0 27 24" fill="none" xmlns="http://www.w3.org/2000/svg">
<g id="Group 84">
<path id="Vector" d="M3.375 23.625H23.625C25.4865 23.625 27 22.1115 27 20.25V6.75C27 4.88848 25.4865 3.375 23.625 3.375H15.1875C14.6549 3.375 14.1539 3.12715 13.8375 2.7L12.825 1.35C12.1869 0.500977 11.185 0 10.125 0H3.375C1.51348 0 0 1.51348 0 3.375V20.25C0 22.1115 1.51348 23.625 3.375 23.625Z" fill="white"/>
<g id="Group">
<path id="Vector_2" d="M14.4018 7.04529C14.6338 7.14548 14.7076 7.32478 14.7076 7.57263C14.7023 9.2074 14.7023 10.8474 14.7023 12.4822C14.7023 12.5297 14.7023 12.5824 14.7023 12.6457C14.7551 12.6457 14.8025 12.6457 14.8447 12.6457C15.3088 12.6457 15.7676 12.6457 16.2316 12.6457C16.4215 12.6457 16.5797 12.7037 16.6641 12.883C16.7484 13.0676 16.6852 13.2205 16.5586 13.3629C15.6516 14.3965 14.7498 15.4301 13.8428 16.4689C13.6266 16.7115 13.3787 16.7115 13.1625 16.4689C12.2555 15.4353 11.3537 14.4017 10.4467 13.3629C10.3201 13.2205 10.2568 13.0676 10.3412 12.883C10.4256 12.7037 10.5785 12.6457 10.7736 12.6457C11.2799 12.651 11.7809 12.6457 12.3029 12.6457C12.3029 12.5929 12.3029 12.5455 12.3029 12.498C12.3029 10.858 12.3082 9.21267 12.2977 7.57263C12.2977 7.32478 12.3662 7.14548 12.6035 7.04529C13.1994 7.04529 13.8006 7.04529 14.4018 7.04529Z" fill="#4B555B"/>
<path id="Vector_3" d="M7.49884 15.8519C8.03673 15.8519 8.5588 15.8519 9.09669 15.8519C9.09669 16.6482 9.09669 17.4392 9.09669 18.2408C12.034 18.2408 14.9555 18.2408 17.8981 18.2408C17.8981 17.4498 17.8981 16.6588 17.8981 15.8572C18.4359 15.8572 18.9633 15.8572 19.5012 15.8572C19.5012 15.8994 19.5065 15.9363 19.5065 15.9785C19.5065 16.9752 19.5065 17.9719 19.5065 18.9685C19.5065 19.5275 19.1795 19.8492 18.6205 19.8492C15.2139 19.8492 11.802 19.8492 8.39532 19.8492C7.83107 19.8492 7.50411 19.5222 7.50411 18.9527C7.50411 17.9666 7.50411 16.9752 7.50411 15.989C7.49884 15.9521 7.49884 15.9099 7.49884 15.8519Z" fill="#4B555B"/>
</g>
</g>
</svg>
