<svg width="27" height="27" viewBox="0 0 27 27" fill="none" xmlns="http://www.w3.org/2000/svg">
<g id="paper-plane-solid 1" clip-path="url(#clip0_135_102)">
<path id="Vector" d="M26.2672 0.295392C26.7999 0.664533 27.0793 1.30262 26.9791 1.9407L23.6041 23.8782C23.525 24.3897 23.2139 24.838 22.7604 25.0911C22.3069 25.3442 21.7637 25.3759 21.2838 25.1755L14.9768 22.5546L11.3645 26.4622C10.8952 26.9737 10.1569 27.1425 9.50825 26.8893C8.85962 26.6362 8.43774 26.0087 8.43774 25.3126V20.904C8.43774 20.693 8.51684 20.4927 8.65923 20.3397L17.4975 10.6946C17.8034 10.3624 17.7928 9.85086 17.4764 9.53445C17.16 9.21805 16.6485 9.19695 16.3163 9.49754L5.59009 19.0266L0.933643 16.6958C0.374658 16.4163 0.0160644 15.8573 0.000244081 15.235C-0.0155762 14.6128 0.311377 14.0327 0.849267 13.7216L24.4743 0.221564C25.0385 -0.100116 25.7346 -0.0684751 26.2672 0.295392Z" fill="#0599FF"/>
</g>
<defs>
<clipPath id="clip0_135_102">
<rect width="27" height="27" fill="white"/>
</clipPath>
</defs>
</svg>
