<svg width="40" height="40" viewBox="0 0 40 40" fill="none" xmlns="http://www.w3.org/2000/svg">
<g id="Group 7">
<rect id="Rectangle 345" width="40" height="40" rx="5" fill="#F5F5F5"/>
<g id="Group 6">
<path id="Vector" d="M25.4043 14.5982C24.9958 14.1895 24.7566 13.6417 24.7345 13.0643C24.7125 12.4869 24.9092 11.9224 25.2854 11.4838C25.3166 11.4473 25.3327 11.4004 25.3307 11.3525C25.3287 11.3046 25.3087 11.2592 25.2746 11.2255L23.1075 9.05592C23.0717 9.02011 23.0231 9 22.9725 9C22.9218 9 22.8733 9.02011 22.8374 9.05592L19.3832 12.5101C19.2558 12.6376 19.1598 12.7929 19.1028 12.9639C19.0461 13.1353 18.9502 13.2911 18.8228 13.4189C18.6953 13.5468 18.5398 13.6432 18.3687 13.7005C18.1976 13.7575 18.0421 13.8535 17.9144 13.9809L9.05592 22.8374C9.02011 22.8733 9 22.9218 9 22.9725C9 23.0231 9.02011 23.0717 9.05592 23.1075L11.223 25.2746C11.2568 25.3087 11.3022 25.3287 11.3501 25.3307C11.398 25.3327 11.4449 25.3166 11.4813 25.2854C11.9199 24.9088 12.4844 24.7118 13.0621 24.7337C13.6397 24.7556 14.1877 24.9948 14.5964 25.4036C15.0052 25.8123 15.2444 26.3603 15.2663 26.938C15.2883 27.5156 15.0912 28.0802 14.7146 28.5187C14.6835 28.5552 14.6673 28.602 14.6693 28.6499C14.6713 28.6979 14.6913 28.7432 14.7254 28.777L16.8925 30.9441C16.9283 30.9799 16.9769 31 17.0275 31C17.0782 31 17.1268 30.9799 17.1626 30.9441L26.0216 22.0856C26.149 21.958 26.245 21.8025 26.302 21.6314C26.3587 21.46 26.4546 21.3042 26.582 21.1763C26.7095 21.0485 26.8649 20.9521 27.0361 20.8947C27.2071 20.8378 27.3625 20.7418 27.4899 20.6143L30.9441 17.1601C30.9799 17.1243 31 17.0757 31 17.0251C31 16.9744 30.9799 16.9259 30.9441 16.89L28.777 14.7229C28.7432 14.6889 28.6979 14.6688 28.6499 14.6668C28.602 14.6648 28.5552 14.681 28.5187 14.7121C28.0807 15.089 27.5166 15.2866 26.9392 15.2654C26.3617 15.2443 25.8136 15.006 25.4043 14.5982Z" stroke="black" stroke-width="1.3" stroke-miterlimit="10"/>
<path id="Vector_2" d="M19.7299 14.3252L18.9191 13.5144M21.8916 16.4869L21.3509 15.9467M24.0533 18.6491L23.5131 18.1084M26.4856 21.0809L25.6748 20.2701" stroke="black" stroke-width="1.3" stroke-miterlimit="10" stroke-linecap="round"/>
</g>
</g>
</svg>
