<svg width="14" height="14" viewBox="0 0 14 14" fill="none" xmlns="http://www.w3.org/2000/svg">
<g clip-path="url(#clip0_305_448)">
<path d="M14 2.49704C13.9294 2.79499 13.7459 3.01136 13.5306 3.22063C13.1528 3.58952 12.7822 3.96905 12.408 4.34503C12.3727 4.3805 12.3374 4.41242 12.3092 4.4408C11.3631 3.4902 10.4206 2.54315 9.46399 1.58192C9.47811 1.56418 9.50988 1.53226 9.53812 1.50388C9.89465 1.14564 10.2512 0.783843 10.6112 0.425596C11.1796 -0.141924 11.9315 -0.141924 12.4963 0.422049C12.8457 0.769655 13.1881 1.12435 13.5411 1.46841C13.7529 1.67414 13.94 1.89405 14.0036 2.19555C14 2.29486 14 2.39418 14 2.49704Z" fill="black"/>
<path d="M0 13.5707C0.0741301 13.2657 0.14826 12.9607 0.21886 12.6556C0.388301 11.9037 0.554211 11.1481 0.713061 10.4246C1.64145 11.3574 2.58043 12.2974 3.51588 13.2373C3.27937 13.2976 3.00756 13.365 2.73575 13.4324C1.98739 13.6133 1.24256 13.7942 0.494201 13.9787C0.23298 14.0425 0.13414 14.0035 0 13.7694C0 13.6984 0 13.6346 0 13.5707Z" fill="black"/>
<path d="M8.71555 2.38354C9.64041 3.31286 10.5829 4.25991 11.5113 5.19277C9.12503 7.59054 6.72816 10.0025 4.33835 12.4038C3.41349 11.4745 2.46744 10.531 1.53552 9.59459C3.92534 7.19327 6.32574 4.78486 8.71555 2.38354Z" fill="black"/>
</g>
<defs>
<clipPath id="clip0_305_448">
<rect width="14" height="14" fill="white"/>
</clipPath>
</defs>
</svg>
