<svg width="18" height="16" viewBox="0 0 18 16" fill="none" xmlns="http://www.w3.org/2000/svg">
<path id="Vector" d="M11 11.125V12.8125C11 13.2601 10.8244 13.6893 10.5118 14.0057C10.1993 14.3222 9.77536 14.5 9.33333 14.5H2.66667C2.22464 14.5 1.80072 14.3222 1.48816 14.0057C1.17559 13.6893 1 13.2601 1 12.8125V2.6875C1 2.23995 1.17559 1.81072 1.48816 1.49426C1.80072 1.17779 2.22464 1 2.66667 1H9C9.92042 1 11 1.75558 11 2.6875V4.375M13.6667 11.125L17 7.75L13.6667 4.375M5.66667 7.75H16.3333" stroke="white" stroke-width="1.5" stroke-linecap="round" stroke-linejoin="round"/>
</svg>
