<svg width="16" height="16" viewBox="0 0 16 16" fill="none" xmlns="http://www.w3.org/2000/svg">
<path d="M11.2021 15H12.9149C13.4679 15 13.9983 14.7803 14.3893 14.3893C14.7803 13.9983 15 13.4679 15 12.9149V11.2021M15 4.79787V3.08511C15 2.5321 14.7803 2.00175 14.3893 1.61071C13.9983 1.21968 13.4679 1 12.9149 1H11.2021M4.79787 15H3.08511C2.5321 15 2.00175 14.7803 1.61071 14.3893C1.21968 13.9983 1 13.4679 1 12.9149V11.2021M1 4.79787V3.08511C1 2.5321 1.21968 2.00175 1.61071 1.61071C2.00175 1.21968 2.5321 1 3.08511 1H4.79787" stroke="black" stroke-width="2" stroke-linecap="round" stroke-linejoin="round"/>
</svg>
