<svg width="40" height="40" viewBox="0 0 40 40" fill="none" xmlns="http://www.w3.org/2000/svg">
<g id="Group 7">
<rect id="Rectangle 345" width="40" height="40" rx="5" fill="#F5F5F5"/>
<g id="Group">
<path id="Vector" d="M15.6154 7C18.5385 7 21.4615 7 24.3846 7C24.4092 7.01233 24.4338 7.03082 24.4646 7.04315C25.0062 7.22192 25.3015 7.60411 25.3138 8.17123C25.3138 8.23904 25.32 8.30685 25.3262 8.38699C25.6708 8.38699 26.0031 8.38699 26.3292 8.38699C27.9108 8.38699 28.9938 9.47192 28.9938 11.0562C28.9938 12.7452 28.9938 14.4281 28.9938 16.1171C28.9877 20.0685 28.9877 24.0199 28.9815 27.9774C28.9815 29.2349 28.3046 30.2089 27.1969 30.5541C27.0615 30.5973 26.92 30.6342 26.7846 30.6712C22.2615 30.6712 17.7385 30.6712 13.2154 30.6712C13.1908 30.6589 13.16 30.6404 13.1354 30.6342C11.8554 30.3938 11 29.3952 11 28.113C11 22.411 11.0062 16.7089 11.0185 11.0068C11.0246 9.46575 12.1262 8.38699 13.6646 8.38699C14.0031 8.38699 14.3354 8.38699 14.6431 8.38699C14.7108 8.11575 14.7415 7.86301 14.8338 7.63493C14.9754 7.28973 15.2892 7.13562 15.6154 7ZM14.6985 9.77397C14.3292 9.77397 13.9908 9.77397 13.6585 9.77397C12.8831 9.77397 12.4031 10.2486 12.3969 11.0192C12.3908 16.7027 12.3846 22.3925 12.3846 28.076C12.3846 28.7911 12.8769 29.2781 13.5908 29.2781C14.1754 29.2781 14.76 29.2781 15.3446 29.2781C19.0062 29.2781 22.6677 29.2781 26.3292 29.2781C26.7046 29.2781 27.0246 29.1794 27.2831 28.9082C27.5415 28.637 27.5969 28.3041 27.5969 27.9466C27.5969 22.4849 27.6031 17.0233 27.6092 11.5555C27.6092 11.3336 27.6215 11.1055 27.6092 10.8836C27.5846 10.3904 27.3446 10.0267 26.8831 9.85411C26.3723 9.66301 25.8431 9.80479 25.3138 9.76164C25.3569 10.7171 24.7354 11.1856 23.8738 11.1671C22.1815 11.1301 20.4892 11.1548 18.7969 11.1548C17.8185 11.1548 16.8462 11.161 15.8677 11.1548C15.2154 11.1486 14.7354 10.6801 14.6923 10.0329C14.6985 9.9589 14.6985 9.87877 14.6985 9.77397ZM16.0892 9.76164C18.7108 9.76164 21.3138 9.76164 23.9108 9.76164C23.9108 9.29931 23.9108 8.84931 23.9108 8.40548C21.2954 8.40548 18.6923 8.40548 16.0892 8.40548C16.0892 8.86164 16.0892 9.29931 16.0892 9.76164Z" fill="black"/>
<path id="Vector_2" d="M22.6985 25.4931C21.9046 25.4931 21.1169 25.4931 20.3231 25.4931C19.8616 25.4931 19.5416 25.2096 19.5416 24.8027C19.5416 24.3959 19.8616 24.1123 20.3231 24.1123C21.9108 24.1123 23.5046 24.1123 25.0923 24.1123C25.5539 24.1123 25.8677 24.402 25.8616 24.815C25.8554 25.2219 25.5477 25.4931 25.0923 25.4993C24.2923 25.4931 23.4923 25.4931 22.6985 25.4931Z" fill="black"/>
<path id="Vector_3" d="M22.6739 16.2466C21.8923 16.2466 21.1046 16.2466 20.3231 16.2466C19.8616 16.2466 19.5416 15.9569 19.5416 15.55C19.5416 15.1432 19.8616 14.8596 20.3293 14.8596C21.9046 14.8596 23.48 14.8596 25.0554 14.8596C25.5231 14.8596 25.8431 15.137 25.8493 15.5439C25.8554 15.9569 25.5293 16.2466 25.0493 16.2466C24.2554 16.2466 23.4616 16.2466 22.6739 16.2466Z" fill="black"/>
<path id="Vector_4" d="M22.7046 19.4829C23.4861 19.4829 24.2738 19.4829 25.0554 19.4829C25.5231 19.4829 25.8431 19.7665 25.8431 20.1733C25.8431 20.5802 25.5231 20.8699 25.0615 20.8699C23.48 20.8699 21.8984 20.8699 20.3108 20.8699C19.8492 20.8699 19.5292 20.574 19.5354 20.1672C19.5415 19.7665 19.8554 19.4829 20.3046 19.4829C21.1046 19.4829 21.9046 19.4829 22.7046 19.4829Z" fill="black"/>
<path id="Vector_5" d="M15.6708 20.2658C16.2185 19.7172 16.7292 19.2055 17.2338 18.6939C17.3938 18.5336 17.5785 18.4288 17.8062 18.4473C18.0831 18.4658 18.2862 18.5952 18.4031 18.8542C18.52 19.1192 18.4892 19.3843 18.2923 19.5877C17.5846 20.3151 16.8646 21.0363 16.1385 21.7452C15.8862 21.9918 15.5169 21.998 15.2585 21.7637C14.92 21.4617 14.6 21.1411 14.2923 20.8021C14.0462 20.537 14.0831 20.1302 14.3292 19.8774C14.5815 19.6247 14.9938 19.6 15.2708 19.8405C15.4123 19.9514 15.5231 20.0994 15.6708 20.2658Z" fill="black"/>
<path id="Vector_6" d="M15.6769 24.8891C16.2307 24.3281 16.7538 23.8041 17.2707 23.2802C17.4738 23.0767 17.72 23.0151 17.9907 23.1014C18.243 23.1815 18.3969 23.3726 18.4523 23.6315C18.5015 23.8658 18.4277 24.0754 18.2615 24.2418C17.5723 24.9384 16.8892 25.6288 16.1877 26.313C15.8861 26.6089 15.5046 26.6089 15.1969 26.3192C14.9015 26.0418 14.6123 25.7521 14.3292 25.4562C14.0523 25.1665 14.0646 24.7473 14.3292 24.4822C14.5938 24.2171 15.0123 24.211 15.3077 24.4822C15.4369 24.6055 15.5415 24.7349 15.6769 24.8891Z" fill="black"/>
<path id="Vector_7" d="M15.7016 15.3466C15.8062 15.1987 15.8616 15.0939 15.9416 15.0138C16.3785 14.5699 16.8154 14.1261 17.2585 13.6884C17.5539 13.3987 17.9785 13.3925 18.2492 13.6576C18.5262 13.9288 18.5323 14.3542 18.2431 14.6501C17.5662 15.3405 16.8769 16.0247 16.1877 16.709C15.8739 17.0233 15.4862 17.0172 15.1662 16.709C14.8831 16.4377 14.6062 16.1603 14.3354 15.8768C14.0523 15.5809 14.0523 15.1555 14.3292 14.8843C14.6 14.6192 15.0123 14.6192 15.3016 14.8966C15.4369 15.0138 15.5354 15.1494 15.7016 15.3466Z" fill="black"/>
</g>
</g>
</svg>
