<svg width="22" height="22" viewBox="0 0 22 22" fill="none" xmlns="http://www.w3.org/2000/svg">
<g id="Icon" clip-path="url(#clip0_22_377)">
<path id="Vector" d="M9.16667 12.0833H8.41667V12.8333V17.4167C8.41667 17.5066 8.33995 17.5833 8.25 17.5833H5.5C5.41005 17.5833 5.33333 17.5066 5.33333 17.4167V11V10.25H4.58333H3.7904L10.8859 3.85893C10.8861 3.85878 10.8863 3.85863 10.8864 3.85848C10.9499 3.80219 11.0501 3.80218 11.1135 3.85845C11.1137 3.85861 11.1139 3.85877 11.1141 3.85893L18.2096 10.25H17.4167H16.6667V11V17.4167C16.6667 17.5066 16.5899 17.5833 16.5 17.5833H13.75C13.66 17.5833 13.5833 17.5066 13.5833 17.4167V12.8333V12.0833H12.8333H9.16667Z" stroke="white" stroke-width="1.5"/>
</g>
<defs>
<clipPath id="clip0_22_377">
<rect width="22" height="22" fill="white"/>
</clipPath>
</defs>
</svg>
