<svg width="16" height="19" viewBox="0 0 16 19" fill="none" xmlns="http://www.w3.org/2000/svg">
<path d="M10.5438 14.7308V15.3846C10.5438 16.0783 10.2758 16.7435 9.79886 17.234C9.3219 17.7245 8.675 18 8.00047 18C7.32595 18 6.67905 17.7245 6.20209 17.234C5.72513 16.7435 5.45718 16.0783 5.45718 15.3846V14.7308M14.8229 13.3998C13.8024 12.1154 13.0819 11.4615 13.0819 7.92055C13.0819 4.67788 11.4717 3.52262 10.1464 2.96154C9.97034 2.88716 9.80463 2.71635 9.75098 2.53041C9.5185 1.71678 8.86679 1 8.00047 1C7.13416 1 6.48205 1.71719 6.25196 2.53123C6.19831 2.71921 6.0326 2.88716 5.85655 2.96154C4.52967 3.52344 2.92103 4.67462 2.92103 7.92055C2.91904 11.4615 2.19858 12.1154 1.17808 13.3998C0.755255 13.9319 1.12562 14.7308 1.86517 14.7308H14.1398C14.8753 14.7308 15.2433 13.9294 14.8229 13.3998Z" stroke="black" stroke-width="1.5" stroke-linecap="round" stroke-linejoin="round"/>
</svg>
