<svg width="13" height="14" viewBox="0 0 13 14" fill="none" xmlns="http://www.w3.org/2000/svg">
<path id="Vector" d="M11.7024 5.9415L6.37519 11.7852C5.35143 12.9082 3.61265 12.9886 2.48965 11.9648C1.36665 10.941 1.28627 9.20226 2.31003 8.07926L8.10052 1.72744C8.73979 1.0262 9.82774 0.975905 10.529 1.61517C11.2302 2.25444 11.2805 3.3424 10.6412 4.04364L5.77723 9.37917C5.52245 9.65864 5.08533 9.67885 4.80585 9.42407C4.52637 9.16929 4.50616 8.73217 4.76094 8.45269L9.16171 3.6253L8.39949 2.93045L3.99872 7.75783C3.35945 8.45907 3.40975 9.54702 4.11099 10.1863C4.81223 10.8256 5.90018 10.7753 6.53945 10.074L11.4035 4.7385C12.4272 3.61549 12.3468 1.87671 11.2238 0.852956C10.1008 -0.170802 8.36206 -0.0904195 7.3383 1.03258L1.54781 7.3844C0.139562 8.92916 0.250031 11.3188 1.79479 12.727C3.33956 14.1353 5.72916 14.0248 7.13741 12.48L12.4647 6.63636L11.7024 5.9415Z" fill="white"/>
</svg>
