<svg width="18" height="18" viewBox="0 0 18 18" fill="none" xmlns="http://www.w3.org/2000/svg">
<path d="M6.11224 1.75878C5.91176 1.16108 5.21008 0.862236 4.60864 1.06147L1.90216 1.75878C1.30072 1.95801 1 2.45609 1 3.05378C1 10.7242 7.31512 17 15.0336 17C15.635 17 16.1362 16.6015 16.2365 16.1035L16.9381 13.3142C17.1386 12.7165 16.8379 12.1188 16.2365 11.82L13.2293 10.525C12.7281 10.3257 12.1266 10.4254 11.8259 10.9234L10.5228 12.4177C8.31751 11.4215 6.5132 9.62843 5.5108 7.43688L7.0144 6.24149C7.41535 5.84303 7.61583 5.24533 7.41535 4.74725L6.11224 1.75878Z" stroke="black" stroke-width="1.5" stroke-miterlimit="10"/>
</svg>
