<svg width="14" height="16" viewBox="0 0 14 16" fill="none" xmlns="http://www.w3.org/2000/svg">
<path id="Vector" d="M8.67569 6.32187C8.17929 6.65552 7.59615 6.83333 7 6.83333C6.20069 6.83333 5.43322 6.51396 4.86665 5.94403C4.29994 5.37394 3.98077 4.5998 3.98077 3.79167C3.98077 3.1891 4.15842 2.60042 4.49074 2.1001C4.82303 1.59983 5.29486 1.2106 5.84605 0.98093C6.39719 0.75128 7.00339 0.691264 7.58819 0.808279C8.17301 0.9253 8.71081 1.21426 9.13335 1.63931C9.55593 2.06441 9.84422 2.60656 9.96105 3.19743C10.0779 3.78833 10.0179 4.40077 9.78881 4.95711C9.55974 5.51341 9.17214 5.98817 8.67569 6.32187ZM0.75 13C0.75 12.0105 1.55991 11.1176 2.95715 10.4246C4.31343 9.75192 5.94958 9.41667 7 9.41667C8.05042 9.41667 9.68657 9.75192 11.0428 10.4246C12.4401 11.1176 13.25 12.0105 13.25 13V14.4167H0.75V13Z" stroke="white" stroke-width="1.5"/>
</svg>
